<svg width="25" height="24" viewBox="0 0 25 24" fill="none" xmlns="http://www.w3.org/2000/svg">
<path d="M12.8566 8.87531C11.1362 8.87531 9.73234 10.2792 9.73234 11.9995C9.73234 13.7198 11.1362 15.1237 12.8566 15.1237C14.5769 15.1237 15.9808 13.7198 15.9808 11.9995C15.9808 10.2792 14.5769 8.87531 12.8566 8.87531ZM22.2269 11.9995C22.2269 10.7058 22.2386 9.42374 22.1659 8.13234C22.0933 6.63234 21.7511 5.30109 20.6542 4.20421C19.555 3.10499 18.2261 2.76515 16.7261 2.69249C15.4323 2.61984 14.1503 2.63156 12.8589 2.63156C11.5651 2.63156 10.2831 2.61984 8.99171 2.69249C7.49171 2.76515 6.16046 3.10734 5.06359 4.20421C3.96437 5.30343 3.62453 6.63234 3.55187 8.13234C3.47921 9.42609 3.49093 10.7081 3.49093 11.9995C3.49093 13.2909 3.47921 14.5753 3.55187 15.8667C3.62453 17.3667 3.96671 18.698 5.06359 19.7948C6.16281 20.8941 7.49171 21.2339 8.99171 21.3066C10.2855 21.3792 11.5675 21.3675 12.8589 21.3675C14.1526 21.3675 15.4347 21.3792 16.7261 21.3066C18.2261 21.2339 19.5573 20.8917 20.6542 19.7948C21.7534 18.6956 22.0933 17.3667 22.1659 15.8667C22.2409 14.5753 22.2269 13.2933 22.2269 11.9995ZM12.8566 16.8066C10.1964 16.8066 8.04952 14.6597 8.04952 11.9995C8.04952 9.33937 10.1964 7.19249 12.8566 7.19249C15.5167 7.19249 17.6636 9.33937 17.6636 11.9995C17.6636 14.6597 15.5167 16.8066 12.8566 16.8066ZM17.8605 8.11827C17.2394 8.11827 16.7378 7.61671 16.7378 6.99562C16.7378 6.37453 17.2394 5.87296 17.8605 5.87296C18.4816 5.87296 18.9831 6.37453 18.9831 6.99562C18.9833 7.1431 18.9544 7.28917 18.898 7.42546C18.8417 7.56175 18.759 7.68558 18.6547 7.78987C18.5504 7.89415 18.4266 7.97684 18.2903 8.0332C18.154 8.08955 18.0079 8.11846 17.8605 8.11827Z" fill="white"/>
</svg>
