<svg width="100" height="100" viewBox="0 0 100 100" fill="none" xmlns="http://www.w3.org/2000/svg">
<circle cx="50" cy="50" r="50" fill="url(#paint0_linear_128_3148)"/>
<path d="M36.0713 56H33.2852L33.3027 53.9434H36.0713C36.7627 53.9434 37.3457 53.7881 37.8203 53.4775C38.2949 53.1611 38.6523 52.7012 38.8926 52.0977C39.1387 51.4941 39.2617 50.7646 39.2617 49.9092V49.2852C39.2617 48.6289 39.1914 48.0518 39.0508 47.5537C38.916 47.0557 38.7139 46.6367 38.4443 46.2969C38.1748 45.957 37.8438 45.7021 37.4512 45.5322C37.0586 45.3564 36.6074 45.2686 36.0977 45.2686H33.2324V43.2031H36.0977C36.9531 43.2031 37.7354 43.3496 38.4443 43.6426C39.1592 43.9297 39.7773 44.3428 40.2988 44.8818C40.8203 45.4209 41.2217 46.0654 41.5029 46.8154C41.79 47.5596 41.9336 48.3887 41.9336 49.3027V49.9092C41.9336 50.8174 41.79 51.6465 41.5029 52.3965C41.2217 53.1465 40.8203 53.791 40.2988 54.3301C39.7832 54.8633 39.165 55.2764 38.4443 55.5693C37.7295 55.8564 36.9385 56 36.0713 56ZM34.7793 43.2031V56H32.1426V43.2031H34.7793ZM46.2227 48.5645V56H43.6914V46.4902H46.0732L46.2227 48.5645ZM49.0879 46.4287L49.0439 48.7754C48.9209 48.7578 48.7715 48.7432 48.5957 48.7314C48.4258 48.7139 48.2705 48.7051 48.1299 48.7051C47.7725 48.7051 47.4619 48.752 47.1982 48.8457C46.9404 48.9336 46.7236 49.0654 46.5479 49.2412C46.3779 49.417 46.249 49.6309 46.1611 49.8828C46.0791 50.1348 46.0322 50.4219 46.0205 50.7441L45.5107 50.5859C45.5107 49.9707 45.5723 49.4053 45.6953 48.8896C45.8184 48.3682 45.9971 47.9141 46.2314 47.5273C46.4717 47.1406 46.7646 46.8418 47.1104 46.6309C47.4561 46.4199 47.8516 46.3145 48.2969 46.3145C48.4375 46.3145 48.5811 46.3262 48.7275 46.3496C48.874 46.3672 48.9941 46.3936 49.0879 46.4287ZM55.1172 53.8555V49.6191C55.1172 49.3145 55.0674 49.0537 54.9678 48.8369C54.8682 48.6143 54.7129 48.4414 54.502 48.3184C54.2969 48.1953 54.0303 48.1338 53.7021 48.1338C53.4209 48.1338 53.1777 48.1836 52.9727 48.2832C52.7676 48.377 52.6094 48.5146 52.498 48.6963C52.3867 48.8721 52.3311 49.0801 52.3311 49.3203H49.7998C49.7998 48.916 49.8936 48.5322 50.0811 48.1689C50.2686 47.8057 50.541 47.4863 50.8984 47.2109C51.2559 46.9297 51.6807 46.71 52.1729 46.5518C52.6709 46.3936 53.2275 46.3145 53.8428 46.3145C54.5811 46.3145 55.2373 46.4375 55.8115 46.6836C56.3857 46.9297 56.8369 47.2988 57.165 47.791C57.499 48.2832 57.666 48.8984 57.666 49.6367V53.7061C57.666 54.2275 57.6982 54.6553 57.7627 54.9893C57.8271 55.3174 57.9209 55.6045 58.0439 55.8506V56H55.4863C55.3633 55.7422 55.2695 55.4199 55.2051 55.0332C55.1465 54.6406 55.1172 54.248 55.1172 53.8555ZM55.4512 50.208L55.4688 51.6406H54.0537C53.7197 51.6406 53.4297 51.6787 53.1836 51.7549C52.9375 51.8311 52.7354 51.9395 52.5771 52.0801C52.4189 52.2148 52.3018 52.373 52.2256 52.5547C52.1553 52.7363 52.1201 52.9355 52.1201 53.1523C52.1201 53.3691 52.1699 53.5654 52.2695 53.7412C52.3691 53.9111 52.5127 54.0459 52.7002 54.1455C52.8877 54.2393 53.1074 54.2861 53.3594 54.2861C53.7402 54.2861 54.0713 54.21 54.3525 54.0576C54.6338 53.9053 54.8506 53.7178 55.0029 53.4951C55.1611 53.2725 55.2432 53.0615 55.249 52.8623L55.917 53.9346C55.8232 54.1748 55.6943 54.4238 55.5303 54.6816C55.3721 54.9395 55.1699 55.1826 54.9238 55.4111C54.6777 55.6338 54.3818 55.8184 54.0361 55.9648C53.6904 56.1055 53.2803 56.1758 52.8057 56.1758C52.2021 56.1758 51.6543 56.0557 51.1621 55.8154C50.6758 55.5693 50.2891 55.2324 50.002 54.8047C49.7207 54.3711 49.5801 53.8789 49.5801 53.3281C49.5801 52.8301 49.6738 52.3877 49.8613 52.001C50.0488 51.6143 50.3242 51.2891 50.6875 51.0254C51.0566 50.7559 51.5166 50.5537 52.0674 50.4189C52.6182 50.2783 53.2568 50.208 53.9834 50.208H55.4512ZM65.6377 46.4902H67.9316V55.6836C67.9316 56.5508 67.7383 57.2861 67.3516 57.8896C66.9707 58.499 66.4375 58.959 65.752 59.2695C65.0664 59.5859 64.2695 59.7441 63.3613 59.7441C62.9629 59.7441 62.541 59.6914 62.0957 59.5859C61.6562 59.4805 61.2344 59.3164 60.8301 59.0938C60.4316 58.8711 60.0977 58.5898 59.8281 58.25L60.9443 56.7559C61.2373 57.0957 61.5771 57.3594 61.9639 57.5469C62.3506 57.7402 62.7783 57.8369 63.2471 57.8369C63.7041 57.8369 64.0908 57.752 64.4072 57.582C64.7236 57.418 64.9668 57.1748 65.1367 56.8525C65.3066 56.5361 65.3916 56.1523 65.3916 55.7012V48.6875L65.6377 46.4902ZM59.2393 51.3594V51.1748C59.2393 50.4482 59.3271 49.7891 59.5029 49.1973C59.6846 48.5996 59.9395 48.0869 60.2676 47.6592C60.6016 47.2314 61.0059 46.9004 61.4805 46.666C61.9551 46.4316 62.4912 46.3145 63.0889 46.3145C63.7217 46.3145 64.252 46.4316 64.6797 46.666C65.1074 46.9004 65.459 47.2344 65.7344 47.668C66.0098 48.0957 66.2236 48.6025 66.376 49.1885C66.5342 49.7686 66.6572 50.4043 66.7451 51.0957V51.5C66.6572 52.1621 66.5254 52.7773 66.3496 53.3457C66.1738 53.9141 65.9424 54.4121 65.6553 54.8398C65.3682 55.2617 65.0107 55.5898 64.583 55.8242C64.1611 56.0586 63.6572 56.1758 63.0713 56.1758C62.4854 56.1758 61.9551 56.0557 61.4805 55.8154C61.0117 55.5752 60.6104 55.2383 60.2764 54.8047C59.9424 54.3711 59.6846 53.8613 59.5029 53.2754C59.3271 52.6895 59.2393 52.0508 59.2393 51.3594ZM61.7705 51.1748V51.3594C61.7705 51.752 61.8086 52.1182 61.8848 52.458C61.9609 52.7979 62.0781 53.0996 62.2363 53.3633C62.4004 53.6211 62.6025 53.8232 62.8428 53.9697C63.0889 54.1104 63.3789 54.1807 63.7129 54.1807C64.1758 54.1807 64.5537 54.084 64.8467 53.8906C65.1396 53.6914 65.3594 53.4189 65.5059 53.0732C65.6523 52.7275 65.7373 52.3291 65.7607 51.8779V50.7266C65.749 50.3574 65.6992 50.0264 65.6113 49.7334C65.5234 49.4346 65.4004 49.1797 65.2422 48.9688C65.084 48.7578 64.8789 48.5938 64.627 48.4766C64.375 48.3594 64.0762 48.3008 63.7305 48.3008C63.3965 48.3008 63.1064 48.377 62.8604 48.5293C62.6201 48.6758 62.418 48.8779 62.2539 49.1357C62.0957 49.3936 61.9756 49.6982 61.8936 50.0498C61.8115 50.3955 61.7705 50.7705 61.7705 51.1748Z" fill="white"/>
<defs>
<linearGradient id="paint0_linear_128_3148" x1="4.02654" y1="22.8458" x2="110.541" y2="55.0791" gradientUnits="userSpaceOnUse">
<stop stop-color="#43C0B9"/>
<stop offset="0.479167" stop-color="#228CDA"/>
<stop offset="1" stop-color="#B81DEF"/>
</linearGradient>
</defs>
</svg>
