<svg width="41" height="40" viewBox="0 0 41 40" fill="none" xmlns="http://www.w3.org/2000/svg">
<g clip-path="url(#clip0_128_1364)">
<path d="M12.7008 31C9.98651 30.9887 7.38756 29.8766 5.47462 27.9079C3.56168 25.9392 2.49113 23.2749 2.49808 20.5C2.49389 17.726 3.56534 15.0633 5.47768 13.0952C7.39003 11.1271 9.98737 10.0142 12.7008 10C18.2862 10 22.9533 14.7846 22.9454 20.5027C22.9376 26.2207 18.2888 31.0054 12.7008 31Z" fill="white"/>
<path d="M23.6911 20.9392C23.6074 17.9625 24.0705 15.494 25.3288 13.226C26.1136 11.8165 27.147 10.597 28.8631 10.6398C30.5793 10.6826 31.6414 11.8968 32.3373 13.3356C34.6212 18.0668 34.5871 22.8487 32.3792 27.604C32.1224 28.1202 31.7918 28.5943 31.3981 29.0107C29.682 30.9176 27.6336 30.8668 26.0508 28.8396C24.4681 26.8123 23.8507 24.3304 23.6964 21.7496C23.6702 21.3511 23.6911 20.9499 23.6911 20.9392Z" fill="white"/>
<path d="M38.4895 20.575C38.5398 22.6242 38.3687 24.6727 37.9794 26.6835C37.9112 27.0784 37.8105 27.4667 37.6785 27.8442C37.4666 28.4139 37.3515 29.2082 36.6321 29.2162C35.8237 29.2162 35.7007 28.3871 35.5019 27.7747C35.3214 27.1794 35.1875 26.5704 35.1017 25.9534C34.4641 21.9884 34.5332 17.9383 35.3057 13.9985C35.4784 13.1399 35.5202 11.8188 36.6399 11.8321C37.6471 11.8455 37.6994 13.1186 37.893 13.9423C38.3752 16.117 38.5757 18.347 38.4895 20.575Z" fill="white"/>
</g>
<defs>
<clipPath id="clip0_128_1364">
<rect width="36" height="21" fill="white" transform="translate(2.5 10)"/>
</clipPath>
</defs>
</svg>
