<svg width="24" height="24" viewBox="0 0 24 24" fill="none" xmlns="http://www.w3.org/2000/svg">
<path d="M8.42578 19.4455C12.2227 19.4455 15.3008 16.3364 15.3008 12.5011C15.3008 8.66577 12.2227 5.55664 8.42578 5.55664C4.62882 5.55664 1.55078 8.66577 1.55078 12.5011C1.55078 16.3364 4.62882 19.4455 8.42578 19.4455Z" fill="white"/>
<path d="M16.5777 6.30469C15.6281 6.30469 14.7319 6.55083 13.9414 6.98663C15.5428 8.28687 16.5777 10.3483 16.5777 12.6689C16.5777 14.8686 15.6481 16.8352 14.1874 18.1418C14.9158 18.4975 15.7251 18.696 16.5777 18.696C19.7676 18.696 22.3532 15.9223 22.3532 12.5003C22.3532 9.0784 19.7676 6.30469 16.5777 6.30469Z" fill="white"/>
</svg>
