<svg width="25" height="24" viewBox="0 0 25 24" fill="none" xmlns="http://www.w3.org/2000/svg">
<g clip-path="url(#clip0_128_1202)">
<path d="M20.8897 4.49295C19.3597 3.80295 17.7197 3.29295 16.0047 3.00295C15.9895 3.00002 15.9737 3.00191 15.9595 3.00836C15.9454 3.01481 15.9336 3.0255 15.9257 3.03895C15.7157 3.40795 15.4817 3.88895 15.3177 4.26895C13.4988 3.99719 11.6497 3.99719 9.83075 4.26895C9.64808 3.84781 9.44209 3.43717 9.21375 3.03895C9.20601 3.02533 9.1943 3.0144 9.18018 3.00761C9.16607 3.00082 9.15022 2.9985 9.13475 3.00095C7.42075 3.29095 5.78075 3.80095 4.24975 4.49195C4.23657 4.49747 4.22541 4.5069 4.21775 4.51895C1.10575 9.09395 0.252746 13.556 0.671746 17.962C0.672912 17.9727 0.676262 17.9832 0.681591 17.9926C0.686921 18.0021 0.694118 18.0104 0.702746 18.017C2.51914 19.3394 4.54508 20.3468 6.69575 20.997C6.71074 21.0016 6.72677 21.0016 6.74176 20.9969C6.75674 20.9923 6.76998 20.9832 6.77975 20.9709C7.24175 20.3509 7.65375 19.6959 8.00575 19.0079C8.02675 18.9679 8.00675 18.9199 7.96475 18.9039C7.31875 18.6607 6.69283 18.3671 6.09275 18.0259C6.08196 18.0198 6.07288 18.0111 6.0663 18.0005C6.05973 17.99 6.05587 17.978 6.05508 17.9656C6.05429 17.9532 6.05658 17.9408 6.06176 17.9295C6.06694 17.9183 6.07484 17.9084 6.08475 17.9009C6.21075 17.8079 6.33675 17.711 6.45675 17.614C6.46755 17.6052 6.48056 17.5997 6.49433 17.5979C6.5081 17.5961 6.52209 17.5982 6.53475 17.604C10.4617 19.368 14.7147 19.368 18.5957 17.604C18.6084 17.5979 18.6226 17.5955 18.6365 17.5971C18.6505 17.5987 18.6637 17.6042 18.6747 17.6129C18.7947 17.7109 18.9197 17.8079 19.0467 17.9009C19.0568 17.9083 19.0648 17.918 19.0701 17.9292C19.0755 17.9403 19.078 17.9527 19.0774 17.9651C19.0768 17.9774 19.0731 17.9895 19.0667 18.0001C19.0603 18.0107 19.0514 18.0196 19.0407 18.0259C18.4427 18.3699 17.8207 18.661 17.1677 18.903C17.1577 18.9066 17.1486 18.9123 17.1409 18.9198C17.1333 18.9272 17.1274 18.9362 17.1235 18.9462C17.1196 18.9561 17.1179 18.9668 17.1184 18.9774C17.119 18.9881 17.1218 18.9985 17.1267 19.0079C17.4867 19.695 17.8987 20.3489 18.3517 20.9699C18.3612 20.9827 18.3743 20.9922 18.3893 20.9972C18.4044 21.0022 18.4206 21.0025 18.4357 20.9979C20.5901 20.3496 22.6194 19.3417 24.4377 18.017C24.4466 18.0107 24.4541 18.0027 24.4596 17.9934C24.4651 17.9841 24.4686 17.9737 24.4697 17.9629C24.9697 12.8689 23.6317 8.44295 20.9207 4.52095C20.9141 4.5082 20.9031 4.49827 20.8897 4.49295ZM8.59275 15.2789C7.41075 15.2789 6.43575 14.2099 6.43575 12.8989C6.43575 11.5869 7.39175 10.5189 8.59275 10.5189C9.80275 10.5189 10.7687 11.5959 10.7497 12.8989C10.7497 14.2109 9.79375 15.2789 8.59275 15.2789ZM16.5677 15.2789C15.3847 15.2789 14.4107 14.2099 14.4107 12.8989C14.4107 11.5869 15.3657 10.5189 16.5677 10.5189C17.7777 10.5189 18.7437 11.5959 18.7247 12.8989C18.7247 14.2109 17.7787 15.2789 16.5677 15.2789Z" fill="white"/>
</g>
<defs>
<clipPath id="clip0_128_1202">
<rect width="24" height="24" fill="white" transform="translate(0.572266)"/>
</clipPath>
</defs>
</svg>
