<svg width="41" height="40" viewBox="0 0 41 40" fill="none" xmlns="http://www.w3.org/2000/svg">
<path d="M12.8102 35V14.7591H6.37942V35H12.8102ZM9.59566 11.9938C11.8382 11.9938 13.2341 10.4396 13.2341 8.49725C13.1923 6.51113 11.8383 5 9.63821 5C7.43849 5 6 6.51116 6 8.49725C6 10.4397 7.39553 11.9938 9.55368 11.9938H9.59546H9.59566ZM16.3697 35H22.8005V23.6965C22.8005 23.0915 22.8423 22.4872 23.0121 22.0547C23.477 20.8461 24.5351 19.5942 26.3116 19.5942C28.6386 19.5942 29.5696 21.4504 29.5696 24.1714V34.9999H36V23.3939C36 17.1767 32.8274 14.2839 28.5963 14.2839C25.1271 14.2839 23.6039 16.3125 22.7577 17.6942H22.8006V14.7586H16.3698C16.4542 16.6579 16.3698 34.9996 16.3698 34.9996L16.3697 35Z" fill="white"/>
</svg>
