<svg width="25" height="24" viewBox="0 0 25 24" fill="none" xmlns="http://www.w3.org/2000/svg">
<g clip-path="url(#clip0_128_1212)">
<path d="M7.17244 13.5088C7.81343 13.5896 8.16808 13.3302 8.42383 12.7632C8.72707 12.0906 9.09084 11.4493 9.07913 10.6783C9.05765 9.26918 8.57545 7.98328 8.03338 6.71433C7.93121 6.47579 7.82124 6.48947 7.65269 6.75343C6.305 8.86119 4.95861 10.9702 3.61417 13.0806C3.42089 13.3843 3.47491 13.4899 3.83021 13.4938C4.46859 13.5016 5.10698 13.4958 5.74536 13.4958C5.74536 13.4964 5.74536 13.4964 5.74536 13.4971C6.2217 13.4977 6.70391 13.4502 7.17244 13.5088Z" fill="white"/>
<path d="M2.29074 15.8033C2.44236 18.7459 4.79155 20.9841 7.73747 20.9893C9.10079 20.9919 10.4641 20.9899 11.8281 20.9899C13.181 20.9899 14.5345 20.9573 15.8855 21.0003C16.9371 21.0336 17.7147 20.5891 18.3583 19.8155C18.9075 19.1546 19.3559 18.4246 19.7899 17.6875C20.2259 16.9484 20.7725 16.3169 21.5684 15.9917C22.1463 15.7551 22.35 15.4083 22.2712 14.8061C22.2185 14.4014 22.2198 14.3655 21.8281 14.4776C20.632 14.8205 19.4431 15.1907 18.2392 15.5028C17.5182 15.6899 16.8759 15.9591 16.4106 16.5698C16.3006 16.7138 16.1451 16.8233 16.0071 16.9452C15.7293 17.1909 15.398 17.3323 15.0343 17.3473C14.4831 17.3701 13.9313 17.3571 13.3794 17.359C13.192 17.3597 13.1029 17.2684 13.1035 17.0794C13.1055 16.646 13.1081 16.2126 13.1009 15.7792C13.097 15.5511 13.2148 15.4716 13.4211 15.4716C13.7133 15.4716 14.0055 15.4637 14.2976 15.4703C14.5039 15.4748 14.6712 15.4149 14.8241 15.2689C15.5412 14.5858 16.1835 13.8422 16.695 12.9917C17.3171 11.9573 17.4479 10.8865 16.9384 9.7642C16.1575 8.04554 14.8521 6.77593 13.3944 5.64645C13.1738 5.47504 13.0879 5.32384 13.097 5.06444C13.11 4.68577 13.1126 4.30515 13.0925 3.92714C13.0619 3.36924 12.6552 2.9795 12.158 3.00296C11.6654 3.02577 11.3198 3.41812 11.3088 3.9695C11.3042 4.19696 11.3003 4.42507 11.3081 4.65188C11.3166 4.90085 11.2281 4.98362 10.9756 4.91063C10.4042 4.74443 9.82897 4.59192 9.25241 4.44397C9.13658 4.41399 8.99146 4.3045 8.89385 4.43876C8.81251 4.55021 8.93094 4.66231 8.983 4.76333C9.65522 6.06813 10.2233 7.41334 10.5546 8.84784C10.8422 10.0914 10.9385 11.329 10.4211 12.5498C10.0431 13.4427 9.54524 14.2652 9.01619 15.072C8.95827 15.16 8.85545 15.2474 8.90491 15.3614C8.96283 15.497 9.10729 15.4657 9.22182 15.4663C9.79513 15.4709 10.3691 15.4748 10.9424 15.469C11.2001 15.4663 11.3179 15.5674 11.3101 15.8352C11.2977 16.225 11.301 16.6154 11.3088 17.0058C11.3133 17.2463 11.2268 17.3675 10.9704 17.3642C10.278 17.3564 9.58494 17.3805 8.8932 17.3545C7.99972 17.3212 7.30733 16.6441 7.26829 15.7622C7.25332 15.4259 7.12187 15.3406 6.81342 15.3432C5.45011 15.3536 4.08679 15.3464 2.72348 15.3484C2.32393 15.349 2.27056 15.4103 2.29074 15.8033Z" fill="white"/>
</g>
<defs>
<clipPath id="clip0_128_1212">
<rect width="20" height="18" fill="white" transform="translate(2.28516 3)"/>
</clipPath>
</defs>
</svg>
