<svg width="25" height="24" viewBox="0 0 25 24" fill="none" xmlns="http://www.w3.org/2000/svg">
<g clip-path="url(#clip0_128_1207)">
<path d="M21.9157 7.60527C21.807 7.21745 21.5952 6.86635 21.3029 6.58927C21.0024 6.30367 20.634 6.09938 20.2325 5.99567C18.7301 5.59967 12.7109 5.59967 12.7109 5.59967C10.2016 5.57112 7.69287 5.69669 5.19893 5.97567C4.79748 6.08704 4.42978 6.2959 4.12853 6.58367C3.83253 6.86847 3.61813 7.21967 3.50613 7.60447C3.23708 9.05386 3.10636 10.5255 3.11573 11.9997C3.10613 13.4725 3.23653 14.9437 3.50613 16.3949C3.61573 16.7781 3.82933 17.1277 4.12613 17.4101C4.42293 17.6925 4.79253 17.8965 5.19893 18.0045C6.72133 18.3997 12.7109 18.3997 12.7109 18.3997C15.2235 18.4283 17.7354 18.3027 20.2325 18.0237C20.634 17.92 21.0024 17.7157 21.3029 17.4301C21.5989 17.1477 21.8093 16.7965 21.9149 16.4141C22.191 14.9652 22.3252 13.4929 22.3157 12.0181C22.3365 10.537 22.2024 9.05772 21.9157 7.60447V7.60527ZM10.7973 14.7389V9.26127L15.8053 12.0005L10.7973 14.7389Z" fill="white"/>
</g>
<defs>
<clipPath id="clip0_128_1207">
<rect width="19.2" height="19.2" fill="white" transform="translate(3.11523 2.40039)"/>
</clipPath>
</defs>
</svg>
