<svg width="143" height="29" viewBox="0 0 143 29" fill="none" xmlns="http://www.w3.org/2000/svg">
<path fill-rule="evenodd" clip-rule="evenodd" d="M0 27.7574V0H6.80651L14.4489 21.141H14.5683L22.2107 0H29.057V27.7574H24.1611V8.1432H24.0019C23.969 8.26151 23.9363 8.38128 23.903 8.50293C23.6938 9.26704 23.4641 10.1054 23.0864 11.1186L16.8371 27.7574H12.2597L6.01042 11.1186C5.57258 9.9441 5.29395 9.0045 5.09493 8.1432H4.93571V27.7574H0ZM43.4853 28.3446C37.236 28.3446 32.6187 23.2551 32.6187 16.9128C32.6187 10.5705 37.236 5.481 43.4853 5.481C47.3861 5.481 50.4112 7.55595 51.8043 10.4139H51.9636V6.1074H56.8196V27.7574H51.9636V23.5292H51.8043C49.8937 26.9352 47.0278 28.3446 43.4853 28.3446ZM44.5202 23.7249C48.5006 23.7249 51.2471 20.7887 51.2471 16.9128C51.2471 12.9978 48.5006 10.1007 44.5202 10.1007C40.5796 10.1007 37.8729 12.9978 37.8729 16.9128C37.8729 20.7887 40.5796 23.7249 44.5202 23.7249ZM62.6502 27.7574V10.688H59.2669V6.1074H62.6502V0H67.6257V6.1074H70.2307H71.1285H75.0883V0H80.0638V6.1074H83.5666V10.688H80.0638V23.1768H83.4471V27.7574H75.0883V10.688H71.1285H70.2307H67.6257V23.1768H71.0091V27.7574H62.6502ZM97.1191 28.3446C90.3922 28.3446 85.1381 23.1768 85.1381 16.8345C85.1381 10.4922 90.3922 5.52015 97.1191 5.52015C103.846 5.52015 109.1 10.4922 109.1 16.9911C109.1 17.3435 109.06 17.9699 108.941 18.5571H90.4718C91.0291 21.5325 93.8552 23.7641 97.1987 23.7641C99.8258 23.7641 102.015 22.5504 103.05 20.358H108.543C106.991 25.0169 102.612 28.3446 97.1191 28.3446ZM90.5514 14.8379H103.567C103.13 12.254 100.542 10.1007 97.0395 10.1007C93.5367 10.1007 90.9097 12.0974 90.5514 14.8379ZM111.985 27.7574V6.1074H125.24V10.688H117.001V27.7574H111.985ZM134.096 28.3446C129.399 28.3446 125.896 25.2126 125.896 21.4151H130.872C130.911 22.8245 132.344 23.8424 134.175 23.8424C136.126 23.8424 137.36 22.9028 137.36 21.4934C137.36 19.6925 135.409 19.301 133.419 18.792C129.279 17.7741 126.334 16.0907 126.334 12.1365C126.334 8.41725 129.757 5.52015 134.255 5.52015C138.594 5.52015 142.176 8.4564 142.176 12.2931L137.2 12.254C137.2 10.8054 135.807 9.98325 134.255 9.98325C132.663 9.98325 131.309 10.7663 131.309 12.0974C131.309 13.7025 133.22 14.094 135.21 14.603C138.156 15.3468 142.216 16.3256 142.216 21.4151C142.216 25.2518 138.554 28.3446 134.096 28.3446Z" fill="white"/>
</svg>
