<svg width="243" height="24" viewBox="0 0 243 24" fill="none" xmlns="http://www.w3.org/2000/svg">
<g clip-path="url(#clip0_1237_112)">
<path d="M25.37 1.70071C24.0932 1.64324 22.8672 1.81902 21.7259 2.18409C20.5813 2.55254 19.3451 2.41057 18.3223 1.77846C16.3174 0.544652 13.9231 -0.117883 11.3628 0.0173283C5.35483 0.338455 0.440782 5.16212 0.0309966 11.1554C-0.449909 18.1661 5.10421 24.0004 12.0232 24.0004C14.3396 24.0004 16.5037 23.3447 18.3393 22.2089C19.335 21.5937 20.5474 21.428 21.6616 21.7965C22.6776 22.1311 23.7613 22.3103 24.8891 22.3103C30.8157 22.3103 35.5774 17.3278 35.1981 11.3311C34.8696 6.12888 30.5821 1.93733 25.3666 1.70071H25.37Z" fill="url(#paint0_linear_1237_112)"/>
<path d="M188.975 0.293945H183.557V17.5334C183.557 20.5216 185.981 22.9418 188.975 22.9418H198.797V17.5334H188.975V0.293945Z" fill="white"/>
<path d="M102.956 0.293945H97.5371V17.5334C97.5371 20.5216 99.962 22.9418 102.956 22.9418H109.729V17.5334H102.956V11.2799H109.729V5.87141H102.956V0.293945Z" fill="white"/>
<path d="M147.658 11.1106V22.9416H153.077V11.1106H157.818V5.70215H153.077C150.083 5.70215 147.658 8.12243 147.658 11.1106Z" fill="white"/>
<path d="M117.856 0.293945H112.438V17.5334C112.438 20.5216 114.862 22.9418 117.856 22.9418H124.629V17.5334H117.856V11.2799H124.629V5.87141H117.856V0.293945Z" fill="white"/>
<path d="M88.3931 7.47725C86.9369 6.36513 85.1182 5.69922 83.1438 5.69922C78.3754 5.69922 74.5078 9.5595 74.5078 14.3189C74.5078 19.0784 78.3754 22.9387 83.1438 22.9387C85.1182 22.9387 86.9369 22.2761 88.3931 21.1606V22.9387H93.8118V5.7026H88.3931V7.48063V7.47725ZM84.1598 18.5443C81.823 18.5443 79.9265 16.6513 79.9265 14.3189C79.9265 11.9865 81.823 10.0936 84.1598 10.0936C86.4966 10.0936 88.3931 11.9865 88.3931 14.3189C88.3931 16.6513 86.4966 18.5443 84.1598 18.5443Z" fill="white"/>
<path d="M58.2509 17.0973L50.4616 0.293945H45.043V22.9418H50.4616V11.983L55.5416 22.9418H60.9603L66.0403 11.983V22.9418H71.4589V0.293945H66.0403L58.2509 17.0973Z" fill="white"/>
<path d="M214.376 7.47725C212.919 6.36513 211.101 5.69922 209.126 5.69922C204.358 5.69922 200.49 9.5595 200.49 14.3189C200.49 19.0784 204.358 22.9387 209.126 22.9387C211.101 22.9387 212.919 22.2761 214.376 21.1606V22.9387H219.794V5.7026H214.376V7.48063V7.47725ZM210.142 18.5443C207.805 18.5443 205.909 16.6513 205.909 14.3189C205.909 11.9865 207.805 10.0936 210.142 10.0936C212.479 10.0936 214.376 11.9865 214.376 14.3189C214.376 16.6513 212.479 18.5443 210.142 18.5443Z" fill="white"/>
<path d="M234.188 5.7024C232.213 5.7024 230.394 6.36493 228.938 7.48042V0.293945H223.52V22.9418H228.938V21.1638C230.394 22.2759 232.213 22.9418 234.188 22.9418C238.956 22.9418 242.823 19.0816 242.823 14.3221C242.823 9.56268 238.956 5.7024 234.188 5.7024ZM233.172 18.5475C230.835 18.5475 228.938 16.6545 228.938 14.3221C228.938 11.9897 230.835 10.0968 233.172 10.0968C235.508 10.0968 237.405 11.9897 237.405 14.3221C237.405 16.6545 235.508 18.5475 233.172 18.5475Z" fill="white"/>
<path d="M137.017 18.5511C135.046 19.0345 132.991 17.6452 132.252 15.4108L144.397 12.4261C144.383 12.372 144.373 12.3145 144.36 12.2604C143.218 7.6362 138.541 4.81366 133.908 5.94944C129.279 7.08859 126.448 11.7568 127.585 16.381C127.599 16.4351 127.616 16.4892 127.629 16.5432C128.839 21.0694 133.458 23.8142 138.033 22.6886C141.44 21.8503 143.872 19.1021 144.465 15.8672L139.642 15.8503C139.249 17.1855 138.304 18.2334 137.014 18.5511H137.017ZM134.843 9.73873C136.387 9.36014 137.796 9.69479 137.993 10.4892C137.993 10.4993 137.996 10.5094 137.999 10.5162L132.411 11.8886C132.411 11.8886 132.405 11.8717 132.405 11.8615C132.208 11.0672 133.302 10.1173 134.846 9.73873H134.843Z" fill="white"/>
<path d="M168.721 12.1387C167.295 11.8683 166.279 11.6317 166.279 11.0199C166.279 10.479 167.092 10.2762 168.043 10.2762C169.638 10.2762 170.963 10.8508 172.355 11.6317L174.969 7.90662C173.272 6.78774 171.034 5.70605 167.81 5.70605C163.634 5.70605 160.274 7.60239 160.274 11.5337C160.274 15.803 164.074 16.6142 166.722 17.1551C168.216 17.4593 169.235 17.6959 169.235 18.3415C169.235 18.9162 168.419 19.2238 167.166 19.2238C165.266 19.2238 163.739 18.5139 162.347 17.5303L159.732 21.2554C161.497 22.5432 163.942 23.7973 167.403 23.7973C171.816 23.7973 175.243 21.732 175.243 17.7669C175.243 13.4976 171.376 12.6525 168.727 12.1455L168.721 12.1387Z" fill="white"/>
</g>
<defs>
<linearGradient id="paint0_linear_1237_112" x1="0.000516617" y1="12.0004" x2="35.2218" y2="12.0004" gradientUnits="userSpaceOnUse">
<stop stop-color="#43C0B9"/>
<stop offset="0.5" stop-color="#228CDA"/>
<stop offset="1" stop-color="#B81DEF"/>
</linearGradient>
<clipPath id="clip0_1237_112">
<rect width="242.824" height="24" fill="white"/>
</clipPath>
</defs>
</svg>
